#!OML:ASF G:\JayActor3\Patient Classification 1\Patient 1\Session 5\male.ASF
:FULLY-SPECIFIED
:DEGREES
940
root 35.2011 13.8321 -4.80488 -114.563 -87.5167 122.533
lowerback 33.3729 -0.575679 0.801789
upperback 7.58682 -1.4716 -1.52839
thorax -8.74866 -1.03309 -1.44803
lowerneck -2.46866 0.399863 0.972247
upperneck -15.0757 0.272123 1.02897
head -4.53665 -0.155704 0.183357
rclavicle 5.26779e-015 2.18663e-015
rhumerus -20.2918 6.59235 -86.0455
rradius 48.3298
rwrist -5.24955
rhand -21.624 -7.71742
rfingers 7.12502
rthumb 4.77184 -37.6437
lclavicle 5.26779e-015 2.18663e-015
lhumerus -20.528 -8.54375 83.8785
lradius 43.6653
lwrist 26.7293
lhand -19.4386 13.6082
lfingers 7.12502
lthumb 6.88173 43.4764
rfemur -71.8527 5.57885 16.3541
rtibia 61.6932
rfoot -0.145202 -21.1316
rtoes 9.54581
lfemur -42.8779 7.52199 -26.6021
ltibia 84.671
lfoot -30.0834 -1.98566
ltoes -21.4677
941
root 35.3213 13.8348 -4.77642 -116.305 -87.4253 124.278
lowerback 33.3419 -0.566294 0.792476
upperback 7.56959 -1.46292 -1.5396
thorax -8.75575 -1.02845 -1.45839
lowerneck -2.51347 0.409726 0.983113
upperneck -15.025 0.280869 0.99228
head -4.50899 -0.149304 0.16855
rclavicle -1.12313e-014 -6.36111e-015
rhumerus -20.2915 6.54381 -86.0564
rradius 48.2305
rwrist -5.16568
rhand -21.5747 -7.72258
rfingers 7.12502
rthumb 4.8194 -37.6478
lclavicle -1.12313e-014 -6.36111e-015
lhumerus -20.5594 -8.62809 83.9174
lradius 43.7129
lwrist 26.6925
lhand -19.3804 13.6426
lfingers 7.12502
lthumb 6.93793 43.5089
rfemur -72.0679 5.59273 15.9828
rtibia 61.2034
rfoot 0.426679 -21.1359
rtoes 8.68399
lfemur -43.1871 7.68052 -26.9721
ltibia 84.3384
lfoot -30.3679 -1.57152
ltoes -20.8501
942
root 35.4402 13.8374 -4.74822 -118.005 -87.3551 125.967
lowerback 33.326 -0.564278 0.803591
upperback 7.5565 -1.45639 -1.54214
thorax -8.76414 -1.02538 -1.46951
lowerneck -2.55236 0.421454 0.99365
upperneck -14.9914 0.291768 0.955535
head -4.48889 -0.142306 0.153835
rclavicle -1.2921e-015 8.15017e-015
rhumerus -20.3056 6.50749 -86.0636
rradius 48.1632
rwrist -5.10453
rhand -21.5276 -7.72455
rfingers 7.12502
rthumb 4.86495 -37.6487
lclavicle -1.2921e-015 8.15017e-015
lhumerus -20.6006 -8.70309 83.9557
lradius 43.7745
lwrist 26.6412
lhand -19.3147 13.6665
lfingers 7.12502
lthumb 7.00141 43.5308
rfemur -72.2733 5.60122 15.6095
rtibia 60.7854
rfoot 0.786622 -21.0445
rtoes 7.45672
lfemur -43.5206 7.86466 -27.3439
ltibia 84.0494
lfoot -30.5967 -1.08389
ltoes -20.2153
943
root 35.5574 13.8392 -4.72056 -119.598 -87.2991 127.528
lowerback 33.3289 -0.565452 0.824493
upperback 7.55028 -1.45073 -1.5365
thorax -8.77205 -1.02329 -1.47665
lowerneck -2.57887 0.433445 1.00468
upperneck -14.979 0.30281 0.918904
head -4.47903 -0.1358 0.139189
rclavicle -1.09332e-015 -1.18277e-014
rhumerus -20.3341 6.48411 -86.0643
rradius 48.1276
rwrist -5.06861
rhand -21.4826 -7.71911
rfingers 7.12502
rthumb 4.90842 -37.6423
lclavicle -1.09332e-015 -1.18277e-014
lhumerus -20.6491 -8.77321 83.9955
lradius 43.8484
lwrist 26.5823
lhand -19.2431 13.6778
lfingers 7.12502
lthumb 7.07045 43.5397
rfemur -72.4544 5.59944 15.2368
rtibia 60.4595
rfoot 0.962644 -20.7692
rtoes 5.63916
lfemur -43.8607 8.05404 -27.7116
ltibia 83.7988
lfoot -30.7807 -0.554911
ltoes -19.5734
944
root 35.6726 13.8398 -4.69361 -121.181 -87.2577 129.054
lowerback 33.3545 -0.568136 0.85563
upperback 7.55016 -1.44384 -1.52354
thorax -8.78181 -1.02123 -1.48165
lowerneck -2.58905 0.444716 1.01636
upperneck -14.9831 0.313324 0.885035
head -4.47843 -0.130052 0.125452
rclavicle -9.0447e-015 -4.77083e-015
rhumerus -20.3749 6.47388 -86.0594
rradius 48.113
rwrist -5.05275
rhand -21.4434 -7.70313
rfingers 7.12502
rthumb 4.94618 -37.6254
lclavicle -9.0447e-015 -4.77083e-015
lhumerus -20.712 -8.84051 84.0354
lradius 43.9406
lwrist 26.5225
lhand -19.1769 13.686
lfingers 7.12502
lthumb 7.13439 43.5458
rfemur -72.599 5.58158 14.8894
rtibia 60.2534
rfoot 0.897307 -20.2578
rtoes 3.37035
lfemur -44.1906 8.23135 -28.0567
ltibia 83.5796
lfoot -30.9298 -0.0281703
ltoes -18.9173
945
root 35.7852 13.8389 -4.66777 -122.72 -87.2247 130.505
lowerback 33.4003 -0.56824 0.889021
upperback 7.55703 -1.4335 -1.50525
thorax -8.79133 -1.01808 -1.48323
lowerneck -2.59078 0.453205 1.02949
upperneck -14.9923 0.320905 0.856572
head -4.48137 -0.126151 0.113389
rclavicle -9.93923e-017 -1.48095e-014
rhumerus -20.426 6.46819 -86.0499
rradius 48.1132
rwrist -5.0502
rhand -21.4083 -7.68274
rfingers 7.12502
rthumb 4.98009 -37.6042
lclavicle -9.93923e-017 -1.48095e-014
lhumerus -20.7802 -8.90802 84.0754
lradius 44.0389
lwrist 26.4676
lhand -19.1193 13.6849
lfingers 7.12502
lthumb 7.18998 43.5428
rfemur -72.7051 5.53589 14.5945
rtibia 60.206
rfoot 0.601684 -19.4948
rtoes 0.793783
lfemur -44.4979 8.38107 -28.3704
ltibia 83.3874
lfoot -31.0545 0.460154
ltoes -18.2477
946
root 35.8954 13.8359 -4.64312 -124.089 -87.2056 131.761
lowerback 33.4556 -0.570157 0.925419
upperback 7.572 -1.4246 -1.48047
thorax -8.79541 -1.01602 -1.47893
lowerneck -2.5825 0.459622 1.04473
upperneck -15.005 0.326436 0.831724
head -4.48758 -0.123552 0.10224
rclavicle -1.09332e-015 -3.8763e-015
rhumerus -20.4816 6.47133 -86.0358
rradius 48.1174
rwrist -5.05516
rhand -21.3835 -7.65421
rfingers 7.12502
rthumb 5.00402 -37.5751
lclavicle -1.09332e-015 -3.8763e-015
lhumerus -20.8548 -8.96965 84.1137
lradius 44.1449
lwrist 26.4256
lhand -19.0777 13.6899
lfingers 7.12502
lthumb 7.23017 43.5464
rfemur -72.7808 5.44473 14.3781
rtibia 60.3586
rfoot 0.0726856 -18.5329
rtoes -1.80905
lfemur -44.7807 8.48321 -28.6439
ltibia 83.2205
lfoot -31.1644 0.892921
ltoes -17.5926
947
root 36.0032 13.8307 -4.62007 -125.389 -87.199 132.929
lowerback 33.5154 -0.569998 0.962317
upperback 7.59342 -1.41295 -1.45033
thorax -8.79376 -1.01297 -1.47022
lowerneck -2.57605 0.463307 1.06307
upperneck -15.0048 0.329673 0.814853
head -4.48871 -0.122256 0.0932505
rclavicle 4.27387e-015 -6.55989e-015
rhumerus -20.5426 6.47293 -86.0192
rradius 48.1254
rwrist -5.06216
rhand -21.3522 -7.64814
rfingers 7.12502
rthumb 5.03429 -37.5683
lclavicle 4.27387e-015 -6.55989e-015
lhumerus -20.9223 -9.02491 84.1495
lradius 44.2398
lwrist 26.3982
lhand -19.0494 13.6955
lfingers 7.12502
lthumb 7.25751 43.551
rfemur -72.8425 5.31065 14.2604
rtibia 60.7486
rfoot -0.684661 -17.4857
rtoes -4.18087
lfemur -45.046 8.53966 -28.869
ltibia 83.0812
lfoot -31.2622 1.26416
ltoes -16.9736
948
root 36.1084 13.8227 -4.59859 -126.689 -87.2046 134.084
lowerback 33.5681 -0.567649 1.00036
upperback 7.62137 -1.39794 -1.41444
thorax -8.78184 -1.00855 -1.45745
lowerneck -2.5756 0.464327 1.08118
upperneck -14.9854 0.330897 0.807432
head -4.48157 -0.121854 0.087469
rclavicle -7.65321e-015 -1.16289e-014
rhumerus -20.6061 6.46923 -85.9994
rradius 48.1457
rwrist -5.10466
rhand -21.2755 -7.72225
rfingers 7.12502
rthumb 5.10835 -37.6407
lclavicle -7.65321e-015 -1.16289e-014
lhumerus -20.981 -9.06297 84.1849
lradius 44.3158
lwrist 26.3785
lhand -19.037 13.6978
lfingers 7.12502
lthumb 7.26944 43.5529
rfemur -72.905 5.13728 14.243
rtibia 61.4031
rfoot -1.66295 -16.4954
rtoes -6.11024
lfemur -45.2983 8.54417 -29.044
ltibia 82.9711
lfoot -31.3538 1.56665
ltoes -16.3646
949
root 36.2116 13.812 -4.57882 -127.979 -87.2209 135.226
lowerback 33.6058 -0.562113 1.03635
upperback 7.65109 -1.37883 -1.37366
thorax -8.76194 -1.00211 -1.4402
lowerneck -2.57785 0.462877 1.10075
upperneck -14.9446 0.33076 0.810543
head -4.46603 -0.122058 0.0849324
rclavicle -3.08116e-015 -1.19271e-015
rhumerus -20.6743 6.45666 -85.9777
rradius 48.1686
rwrist -5.16974
rhand -21.1512 -7.87357
rfingers 7.12502
rthumb 5.22838 -37.7891
lclavicle -3.08116e-015 -1.19271e-015
lhumerus -21.0292 -9.08327 84.2202
lradius 44.3654
lwrist 26.3641
lhand -19.0409 13.7024
lfingers 7.12502
lthumb 7.2657 43.5577
rfemur -72.9889 4.92917 14.3161
rtibia 62.3314
rfoot -2.81565 -15.6737
rtoes -7.51878
lfemur -45.5552 8.49863 -29.1741
ltibia 82.892
lfoot -31.4396 1.81398
ltoes -15.7592
950
root 36.3126 13.7988 -4.56059 -129.451 -87.2454 136.551
lowerback 33.628 -0.553001 1.07369
upperback 7.68006 -1.35398 -1.32941
thorax -8.73664 -0.992864 -1.42235
lowerneck -2.58644 0.460366 1.11966
upperneck -14.8806 0.331114 0.824921
head -4.44071 -0.12184 0.0861977
rclavicle -9.0447e-015 -8.94531e-016
rhumerus -20.7483 6.43404 -85.9572
rradius 48.1857
rwrist -5.24286
rhand -20.9995 -8.07499
rfingers 7.12502
rthumb 5.37481 -37.9868
lclavicle -9.0447e-015 -8.94531e-016
lhumerus -21.0684 -9.08305 84.2525
lradius 44.384
lwrist 26.3548
lhand -19.0586 13.7074
lfingers 7.12502
lthumb 7.24858 43.5632
rfemur -73.0974 4.70084 14.4688
rtibia 63.5239
rfoot -4.09508 -15.0809
rtoes -8.49039
lfemur -45.8193 8.41242 -29.2609
ltibia 82.8418
lfoot -31.5232 2.02286
ltoes -15.1767
951
root 36.4118 13.7835 -4.54367 -131.132 -87.2668 138.093
lowerback 33.6333 -0.536128 1.1077
upperback 7.70427 -1.31971 -1.28485
thorax -8.70982 -0.978874 -1.40612
lowerneck -2.59923 0.455885 1.14182
upperneck -14.7947 0.330132 0.845046
head -4.4066 -0.122076 0.0887705
rclavicle 5.31749e-015 -8.94531e-016
rhumerus -20.8316 6.39621 -85.9369
rradius 48.188
rwrist -5.31197
rhand -20.8331 -8.29981
rfingers 7.12502
rthumb 5.53553 -38.2075
lclavicle 5.31749e-015 -8.94531e-016
lhumerus -21.1063 -9.06879 84.2832
lradius 44.3762
lwrist 26.3439
lhand -19.0864 13.7075
lfingers 7.12502
lthumb 7.22174 43.5643
rfemur -73.2349 4.46046 14.6792
rtibia 64.9577
rfoot -5.39686 -14.7103
rtoes -9.23068
lfemur -46.0953 8.29435 -29.3212
ltibia 82.8147
lfoot -31.6102 2.2189
ltoes -14.6093
